<svg width="51" height="50" viewBox="0 0 51 50" fill="none" xmlns="http://www.w3.org/2000/svg">
<path d="M35.1049 11.7709L28.5174 6.77087C27.6674 5.93754 25.7549 5.52087 24.4799 5.52087H16.4049C13.8549 5.52087 11.0924 7.39587 10.4549 9.89587L5.35492 25.1042C4.29242 28.0209 6.20492 30.5209 9.39242 30.5209H17.8924C19.1674 30.5209 20.2299 31.5625 20.0174 33.0209L18.9549 39.6875C18.5299 41.5625 19.8049 43.6459 21.7174 44.2709C23.4174 44.8959 25.5424 44.0625 26.3924 42.8125L35.1049 30.1042" stroke="white" stroke-width="1.5" stroke-miterlimit="10"/>
<path d="M45.9424 11.7708V32.1875C45.9424 35.1042 44.6674 36.1458 41.6924 36.1458H39.5674C36.5924 36.1458 35.3174 35.1042 35.3174 32.1875V11.7708C35.3174 8.85417 36.5924 7.8125 39.5674 7.8125H41.6924C44.6674 7.8125 45.9424 8.85417 45.9424 11.7708Z" stroke="white" stroke-width="1.5" stroke-linecap="round" stroke-linejoin="round"/>
</svg>
