<svg width="53" height="54" viewBox="0 0 53 54" fill="none" xmlns="http://www.w3.org/2000/svg">
<g filter="url(#filter0_d_2225_540)">
<path d="M44.3864 9.60419C43.3436 8.53961 42.1055 7.69512 40.7427 7.11894C39.38 6.54277 37.9194 6.24622 36.4443 6.24622C34.9692 6.24622 33.5086 6.54277 32.1459 7.11894C30.7831 7.69512 29.545 8.53961 28.5022 9.60419L26.3381 11.8125L24.1739 9.60419C22.0675 7.45483 19.2107 6.24733 16.2318 6.24733C13.2529 6.24733 10.3961 7.45483 8.28972 9.60419C6.18335 11.7535 5 14.6687 5 17.7084C5 20.748 6.18335 23.6632 8.28972 25.8125L10.4539 28.0209L26.3381 44.2292L42.2222 28.0209L44.3864 25.8125C45.4297 24.7484 46.2573 23.485 46.8219 22.0945C47.3866 20.704 47.6772 19.2135 47.6772 17.7084C47.6772 16.2032 47.3866 14.7127 46.8219 13.3222C46.2573 11.9317 45.4297 10.6683 44.3864 9.60419Z" fill="#FF689F" stroke="#FF689F" stroke-width="2" stroke-linecap="round" stroke-linejoin="round"/>
</g>
<defs>
<filter id="filter0_d_2225_540" x="-2.16187" y="0" width="57" height="58" filterUnits="userSpaceOnUse" color-interpolation-filters="sRGB">
<feFlood flood-opacity="0" result="BackgroundImageFix"/>
<feColorMatrix in="SourceAlpha" type="matrix" values="0 0 0 0 0 0 0 0 0 0 0 0 0 0 0 0 0 0 127 0" result="hardAlpha"/>
<feOffset dy="4"/>
<feGaussianBlur stdDeviation="2"/>
<feComposite in2="hardAlpha" operator="out"/>
<feColorMatrix type="matrix" values="0 0 0 0 0 0 0 0 0 0 0 0 0 0 0 0 0 0 0.5 0"/>
<feBlend mode="normal" in2="BackgroundImageFix" result="effect1_dropShadow_2225_540"/>
<feBlend mode="normal" in="SourceGraphic" in2="effect1_dropShadow_2225_540" result="shape"/>
</filter>
</defs>
</svg>
