<svg width="49" height="50" viewBox="0 0 49 50" fill="none" xmlns="http://www.w3.org/2000/svg">
<path d="M42.5483 9.60419C41.5055 8.53961 40.2673 7.69512 38.9046 7.11894C37.5419 6.54277 36.0812 6.24622 34.6062 6.24622C33.1311 6.24622 31.6705 6.54277 30.3077 7.11894C28.945 7.69512 27.7069 8.53961 26.6641 9.60419L24.4999 11.8125L22.3358 9.60419C20.2294 7.45483 17.3725 6.24733 14.3937 6.24733C11.4148 6.24733 8.55796 7.45483 6.45158 9.60419C4.34521 11.7535 3.16187 14.6687 3.16187 17.7084C3.16187 20.748 4.34521 23.6632 6.45158 25.8125L8.61575 28.0209L24.4999 44.2292L40.3841 28.0209L42.5483 25.8125C43.5915 24.7484 44.4191 23.485 44.9838 22.0945C45.5484 20.704 45.8391 19.2135 45.8391 17.7084C45.8391 16.2032 45.5484 14.7127 44.9838 13.3222C44.4191 11.9317 43.5915 10.6683 42.5483 9.60419Z" stroke="white" stroke-width="2" stroke-linecap="round" stroke-linejoin="round"/>
</svg>
